<svg width="19" height="17" viewBox="0 0 19 17" fill="none" xmlns="http://www.w3.org/2000/svg">
<path d="M19 2.59972C12.6656 2.59972 6.33111 2.59972 0 2.59972C0 1.74005 0 0.876929 0 0C6.33445 0 12.6689 0 19 0C19 0.876929 19 1.74005 19 2.59972Z" fill="black"/>
<path d="M0 7.18115C6.33445 7.18115 12.6689 7.18115 19 7.18115C19 8.05463 19 8.92811 19 9.79814C12.6656 9.79814 6.33111 9.79814 0 9.79814C0 8.92811 0 8.05463 0 7.18115Z" fill="black"/>
<path d="M0 14.3829C4.25637 14.3829 8.51609 14.3829 13.0397 14.3829C12.6589 15.3772 12.3448 16.1886 12.0341 16.9999C8.10849 16.9999 4.18287 16.9999 0 16.9999C0 16.1402 0 15.2599 0 14.3829Z" fill="black"/>
</svg>
