<svg width="55" height="55" viewBox="0 0 55 55" fill="none" xmlns="http://www.w3.org/2000/svg">
<circle cx="27.5" cy="27.5" r="27.5" fill="white" fill-opacity="0.15"/>
<circle cx="27.5" cy="27.5" r="22.5" fill="#93B474"/>
<path d="M36.3691 35.3004L31.9977 30.9289C33.0813 29.6078 33.7344 27.9156 33.7344 26.0713C33.7344 21.8408 30.3018 18.4082 26.0713 18.4082C21.8371 18.4082 18.4082 21.8408 18.4082 26.0713C18.4082 30.3018 21.8371 33.7344 26.0713 33.7344C27.9156 33.7344 29.6041 33.085 30.9252 32.0014L35.2967 36.3691C35.5936 36.666 36.0723 36.666 36.3691 36.3691C36.666 36.076 36.666 35.5936 36.3691 35.3004ZM26.0713 32.2092C22.6832 32.2092 19.9297 29.4557 19.9297 26.0713C19.9297 22.6869 22.6832 19.9297 26.0713 19.9297C29.4557 19.9297 32.2129 22.6869 32.2129 26.0713C32.2129 29.4557 29.4557 32.2092 26.0713 32.2092Z" fill="white"/>
</svg>
